<svg width="24" height="24" viewBox="0 0 24 24" fill="none" xmlns="http://www.w3.org/2000/svg">
<path fill-rule="evenodd" clip-rule="evenodd" d="M14 2C14.5523 2 15 2.44772 15 3V7H19C19.5523 7 20 7.44772 20 8C20 8.55228 19.5523 9 19 9H14C13.4477 9 13 8.55228 13 8V3C13 2.44772 13.4477 2 14 2Z" fill="#e0e0e0"/>
<path fill-rule="evenodd" clip-rule="evenodd" d="M4 4C4 2.89543 4.89543 2 6 2H14.5858C15.1162 2 15.6249 2.21071 16 2.58579L19.4142 6L18.7071 6.70711L19.4142 6C19.7893 6.37507 20 6.88378 20 7.41421V20C20 21.1046 19.1046 22 18 22H6C4.89543 22 4 21.1046 4 20V4ZM14.5858 4L6 4V20H18L18 7.41421L14.5858 4Z" fill="#e0e0e0"/>
<path fill-rule="evenodd" clip-rule="evenodd" d="M14.8285 12.5856L10.5858 16.8282L9.17163 15.414L13.4143 11.1714L14.8285 12.5856Z" fill="#e0e0e0"/>
<path fill-rule="evenodd" clip-rule="evenodd" d="M13.4143 16.8282L9.17163 12.5855L10.5858 11.1713L14.8285 15.4139L13.4143 16.8282Z" fill="#e0e0e0"/>
</svg>
