<svg width="24" height="24" viewBox="0 0 24 24" fill="none" xmlns="http://www.w3.org/2000/svg">
<path fill-rule="evenodd" clip-rule="evenodd" d="M17.2415 3.82907C17.6121 4.23861 17.5804 4.87098 17.1709 5.24152L6.86563 14.5653L6.38741 16L7.61338 16L18.3273 6.26004C18.736 5.88854 19.3684 5.91865 19.7399 6.32731C20.1114 6.73597 20.0813 7.36842 19.6727 7.73992L8.67266 17.7399C8.48859 17.9073 8.24875 18 7.99998 18L4.99998 18C4.67854 18 4.37669 17.8455 4.18874 17.5847C4.00079 17.3239 3.94965 16.9887 4.0513 16.6838L5.0513 13.6838C5.10574 13.5204 5.20142 13.3739 5.32907 13.2584L15.8291 3.75845C16.2386 3.38791 16.871 3.41953 17.2415 3.82907Z" fill="#e0e0e0"/>
<path fill-rule="evenodd" clip-rule="evenodd" d="M4 21C4 20.4477 4.44772 20 5 20L19 20C19.5523 20 20 20.4477 20 21C20 21.5523 19.5523 22 19 22L5 22C4.44772 22 4 21.5523 4 21Z" fill="#e0e0e0"/>
<path fill-rule="evenodd" clip-rule="evenodd" d="M15.7929 3.79286C16.1834 3.40234 16.8166 3.40234 17.2071 3.79286L19.7071 6.29286C20.0976 6.68339 20.0976 7.31655 19.7071 7.70707C19.3166 8.0976 18.6834 8.0976 18.2929 7.70707L15.7929 5.20707C15.4024 4.81655 15.4024 4.18339 15.7929 3.79286Z" fill="#e0e0e0"/>
<path fill-rule="evenodd" clip-rule="evenodd" d="M15.2928 9.70706L12.7928 7.20706L14.207 5.79285L16.707 8.29285L15.2928 9.70706Z" fill="#e0e0e0"/>
</svg>
