<?xml version="1.0" encoding="UTF-8" standalone="no"?>
<!-- Generator: Adobe Illustrator 24.3.0, SVG Export Plug-In . SVG Version: 6.00 Build 0)  -->

<svg
   version="1.1"
   id="Layer_1"
   x="0px"
   y="0px"
   viewBox="0 0 50 50"
   enable-background="new 0 0 200 200"
   xml:space="preserve"
   sodipodi:docname="SettingsIcon.svg"
   inkscape:version="1.1.2 (0a00cf5339, 2022-02-04, custom)"
   width="500"
   height="500"
   xmlns:inkscape="http://www.inkscape.org/namespaces/inkscape"
   xmlns:sodipodi="http://sodipodi.sourceforge.net/DTD/sodipodi-0.dtd"
   xmlns="http://www.w3.org/2000/svg"
   xmlns:svg="http://www.w3.org/2000/svg"><defs
   id="defs9" /><sodipodi:namedview
   id="namedview7"
   pagecolor="#ffffff"
   bordercolor="#666666"
   borderopacity="1.0"
   inkscape:pageshadow="2"
   inkscape:pageopacity="0.0"
   inkscape:pagecheckerboard="0"
   showgrid="false"
   inkscape:zoom="1.1813307"
   inkscape:cx="143.48226"
   inkscape:cy="85.920056"
   inkscape:window-width="1908"
   inkscape:window-height="1032"
   inkscape:window-x="0"
   inkscape:window-y="0"
   inkscape:window-maximized="1"
   inkscape:current-layer="Layer_1"
   width="100px"
   lock-margins="false"
   fit-margin-bottom="0" />
<path
   fill="#ffffff"
   d="m 24.999997,32.667528 c -4.226747,0 -7.650064,-3.42331 -7.650064,-7.65006 0,-4.226748 3.423317,-7.684997 7.650064,-7.684997 4.22675,0 7.65007,3.458249 7.65007,7.684997 0,4.22675 -3.42332,7.65006 -7.65007,7.65006 z m 0,-13.972717 c -3.493179,0 -6.322655,2.829476 -6.322655,6.322657 0,3.49318 2.829476,6.28772 6.322655,6.28772 3.49318,0 6.28773,-2.82947 6.28773,-6.28772 0,-3.458249 -2.82948,-6.322657 -6.28773,-6.322657 z"
   id="path2"
   style="fill:#ffffff;stroke-width:0.349318" />
<path
   fill="#ffffff"
   d="m 21.471904,41.577358 c -0.03493,0 -0.104795,0 -0.139727,0 -2.445226,-0.5589 -4.750725,-1.67672 -6.741838,-3.24865 -0.139726,-0.1048 -0.244523,-0.27946 -0.244523,-0.45412 0,-0.17466 0.03493,-0.34931 0.139729,-0.52397 l 0.943158,-1.18768 c -1.292476,-1.11782 -2.375362,-2.48016 -3.178794,-3.98223 l -1.397272,0.6637 c -0.349318,0.17466 -0.7685,0.0349 -0.9431585,-0.31438 -1.082886,-2.27057 -1.641795,-4.7158 -1.641795,-7.26582 0,-0.174656 0.06986,-0.349315 0.209591,-0.489042 0.139727,-0.139727 0.314386,-0.209591 0.489045,-0.209591 h 1.5369995 c 0.06986,-1.711658 0.454114,-3.388384 1.15275,-4.995247 l -1.397273,-0.663705 c -0.174659,-0.06986 -0.2794545,-0.20959 -0.3493175,-0.384249 -0.06986,-0.174659 -0.03493,-0.349318 0.03493,-0.523977 1.0479535,-2.270568 2.6548165,-4.296612 4.6109975,-5.868543 0.279455,-0.244523 0.733568,-0.209591 0.978091,0.104795 l 0.97809,1.187681 c 1.397272,-1.013022 2.934271,-1.74659 4.610998,-2.235635 L 20.773268,9.6846284 c -0.03493,-0.174659 0,-0.38425 0.104795,-0.523977 0.104796,-0.139728 0.244523,-0.279455 0.419182,-0.314387 2.410294,-0.558908 5.030181,-0.558908 7.440471,-0.03493 0.38425,0.06986 0.59384,0.454113 0.52398,0.838363 l -0.34932,1.5020666 c 1.6418,0.454114 3.21373,1.222613 4.611,2.200704 l 0.94316,-1.187681 c 0.10479,-0.139728 0.27945,-0.244523 0.45411,-0.244523 0.17466,-0.03493 0.34932,0.03493 0.52398,0.139727 1.95618,1.571931 3.56304,3.597976 4.64593,5.833611 0.0699,0.174659 0.10479,0.349318 0.0349,0.523977 -0.0699,0.174659 -0.17466,0.314386 -0.34932,0.38425 l -1.39727,0.663704 c 0.69864,1.606863 1.08289,3.28359 1.15275,4.995248 l 1.50207,-0.03493 c 0.17466,0 0.34932,0.06986 0.48904,0.209591 0.13973,0.139727 0.20959,0.314386 0.20959,0.489045 0,2.619881 -0.55891,5.065111 -1.64179,7.335671 -0.0699,0.17466 -0.20959,0.27946 -0.38425,0.34932 -0.17466,0.0699 -0.34932,0.0349 -0.52398,-0.0349 l -1.39727,-0.6637 c -0.80343,1.50206 -1.88632,2.8644 -3.17879,4.01715 l 0.94315,1.18769 c 0.24453,0.31438 0.17466,0.73356 -0.10479,0.97809 -1.95618,1.57193 -4.29661,2.68974 -6.70691,3.24865 -0.38425,0.1048 -0.73357,-0.13972 -0.83836,-0.52397 l -0.34932,-1.50207 c -1.71166,0.31438 -3.388383,0.31438 -5.100042,0 l -0.349318,1.50207 c -0.03493,0.17466 -0.139726,0.34931 -0.314386,0.41918 -0.06986,0.10479 -0.174659,0.13972 -0.314386,0.13972 z m -5.449361,-3.91236 c 1.502067,1.08289 3.178794,1.88632 4.925384,2.37537 l 0.314386,-1.46714 c 0.03493,-0.17466 0.139727,-0.34932 0.314386,-0.41918 0.139728,-0.1048 0.349318,-0.13973 0.523977,-0.1048 1.956181,0.45412 3.87743,0.45412 5.86854,0 0.17466,-0.0349 0.38425,0 0.52398,0.1048 0.13973,0.10479 0.27945,0.24452 0.31439,0.41918 l 0.34931,1.46714 c 1.78153,-0.48905 3.45825,-1.29248 4.92539,-2.37537 l -0.94316,-1.18768 c -0.24452,-0.31438 -0.17466,-0.73357 0.1048,-0.97809 1.53699,-1.22261 2.79454,-2.79454 3.6329,-4.57606 0.17466,-0.34932 0.59384,-0.48905 0.94316,-0.31439 l 1.36234,0.6637 c 0.73357,-1.71166 1.15275,-3.52811 1.22261,-5.37949 l -1.50206,0.0349 c -0.17466,0 -0.34932,-0.0699 -0.48905,-0.20959 -0.13973,-0.13973 -0.20959,-0.31439 -0.20959,-0.48905 0,-1.991111 -0.45411,-3.91236 -1.32741,-5.728814 -0.17466,-0.349318 -0.0349,-0.7685 0.31439,-0.943159 l 1.36234,-0.663704 c -0.8733,-1.606863 -2.06098,-3.073998 -3.42332,-4.26168 l -0.94316,1.187682 c -0.24452,0.314386 -0.6637,0.349318 -0.97809,0.104795 -1.57193,-1.222613 -3.35345,-2.095908 -5.2747,-2.51509 -0.38425,-0.06986 -0.59384,-0.454113 -0.52398,-0.838363 l 0.31439,-1.467136 c -1.78152,-0.3493176 -3.70277,-0.3493176 -5.484292,0 l 0.349318,1.467136 c 0.03493,0.174659 0,0.38425 -0.104796,0.523977 -0.104794,0.139727 -0.244522,0.279454 -0.41918,0.314386 -1.921249,0.419182 -3.737703,1.292477 -5.274703,2.550022 -0.314386,0.244522 -0.733568,0.209591 -0.978091,-0.104796 l -0.943158,-1.152749 c -1.362341,1.222613 -2.550022,2.689749 -3.423316,4.296612 l 1.36234,0.663704 c 0.349318,0.174659 0.489045,0.59384 0.314386,0.908227 -0.873295,1.816453 -1.292476,3.702771 -1.292476,5.69388 0,0.38425 -0.314387,0.73357 -0.698636,0.73357 l -1.4671365,-0.0699 c 0.06986,1.85138 0.4890455,3.6329 1.2226135,5.34456 l 1.36234,-0.6637 c 0.174659,-0.0699 0.349318,-0.1048 0.523977,-0.0349 0.174659,0.0699 0.314387,0.17466 0.38425,0.34932 0.873295,1.78152 2.13084,3.35345 3.667839,4.57606 0.139728,0.1048 0.244523,0.27946 0.244523,0.45411 0,0.17466 -0.03493,0.34932 -0.139727,0.52398 z"
   id="path4"
   style="fill:#ffffff;stroke-width:0.349318" />
<path
   fill="#ffffff"
   d="m 24.999997,32.667528 c -4.226747,0 -7.650064,-3.42331 -7.650064,-7.65006 0,-4.226748 3.423317,-7.684997 7.650064,-7.684997 4.22675,0 7.65007,3.458249 7.65007,7.684997 0,4.22675 -3.42332,7.65006 -7.65007,7.65006 z m 0,-13.972717 c -3.493179,0 -6.322655,2.829476 -6.322655,6.322657 0,3.49318 2.829476,6.28772 6.322655,6.28772 3.49318,0 6.28773,-2.82947 6.28773,-6.28772 0,-3.458249 -2.82948,-6.322657 -6.28773,-6.322657 z"
   id="path67"
   style="fill:#ffffff;stroke-width:0.349318" /><path
   fill="#ffffff"
   d="m 21.471904,41.577397 h -0.139727 c -2.445226,-0.5589 -4.750725,-1.67672 -6.741838,-3.24865 -0.139726,-0.1048 -0.244523,-0.27946 -0.244523,-0.45412 0,-0.17466 0.03493,-0.34931 0.139729,-0.52397 l 0.943158,-1.18768 c -1.292476,-1.11782 -2.375362,-2.48016 -3.178794,-3.98223 l -1.397272,0.6637 c -0.349318,0.17466 -0.7685,0.0349 -0.9431585,-0.31438 -1.082886,-2.27057 -1.641795,-4.7158 -1.641795,-7.26582 0,-0.174656 0.06986,-0.349315 0.209591,-0.489042 0.139727,-0.139727 0.314386,-0.209591 0.489045,-0.209591 h 1.5369995 c 0.06986,-1.711658 0.454114,-3.388384 1.15275,-4.995247 l -1.397273,-0.663705 c -0.174659,-0.06986 -0.2794545,-0.20959 -0.3493175,-0.384249 -0.06986,-0.174659 -0.03493,-0.349318 0.03493,-0.523977 1.0479535,-2.270568 2.6548165,-4.296612 4.6109975,-5.868543 0.279455,-0.244523 0.733568,-0.209591 0.978091,0.104795 l 0.97809,1.187681 c 1.397272,-1.013022 2.934271,-1.74659 4.610998,-2.235635 L 20.773268,9.6846672 c -0.03493,-0.174659 0,-0.38425 0.104795,-0.523977 0.104796,-0.139728 0.244523,-0.279455 0.419182,-0.314387 2.410294,-0.558908 5.030181,-0.558908 7.440471,-0.03493 0.38425,0.06986 0.59384,0.454113 0.52398,0.838363 l -0.34932,1.5020668 c 1.6418,0.454114 3.21373,1.222613 4.611,2.200704 l 0.94316,-1.187681 c 0.10479,-0.139728 0.27945,-0.244523 0.45411,-0.244523 0.17466,-0.03493 0.34932,0.03493 0.52398,0.139727 1.95618,1.571931 3.56304,3.597976 4.64593,5.833611 0.0699,0.174659 0.10479,0.349318 0.0349,0.523977 -0.0699,0.174659 -0.17466,0.314386 -0.34932,0.38425 l -1.39727,0.663704 c 0.69864,1.606863 1.08289,3.28359 1.15275,4.995248 l 1.50207,-0.03493 c 0.17466,0 0.34932,0.06986 0.48904,0.209591 0.13973,0.139727 0.20959,0.314386 0.20959,0.489045 0,2.619881 -0.55891,5.065111 -1.64179,7.335671 -0.0699,0.17466 -0.20959,0.27946 -0.38425,0.34932 -0.17466,0.0699 -0.34932,0.0349 -0.52398,-0.0349 l -1.39727,-0.6637 c -0.80343,1.50206 -1.88632,2.8644 -3.17879,4.01715 l 0.94315,1.18769 c 0.24453,0.31438 0.17466,0.73356 -0.10479,0.97809 -1.95618,1.57193 -4.29661,2.68974 -6.70691,3.24865 -0.38425,0.1048 -0.73357,-0.13972 -0.83836,-0.52397 l -0.34932,-1.50207 c -1.71166,0.31438 -3.388383,0.31438 -5.100042,0 l -0.349318,1.50207 c -0.03493,0.17466 -0.139726,0.34931 -0.314386,0.41918 -0.06986,0.10479 -0.174659,0.13972 -0.314386,0.13972 z m -5.449361,-3.91236 c 1.502067,1.08289 3.178794,1.88632 4.925384,2.37537 l 0.314386,-1.46714 c 0.03493,-0.17466 0.139727,-0.34932 0.314386,-0.41918 0.139728,-0.1048 0.349318,-0.13973 0.523977,-0.1048 1.956181,0.45412 3.87743,0.45412 5.86854,0 0.17466,-0.0349 0.38425,0 0.52398,0.1048 0.13973,0.10479 0.27945,0.24452 0.31439,0.41918 l 0.34931,1.46714 c 1.78153,-0.48905 3.45825,-1.29248 4.92539,-2.37537 l -0.94316,-1.18768 c -0.24452,-0.31438 -0.17466,-0.73357 0.1048,-0.97809 1.53699,-1.22261 2.79454,-2.79454 3.6329,-4.57606 0.17466,-0.34932 0.59384,-0.48905 0.94316,-0.31439 l 1.36234,0.6637 c 0.73357,-1.71166 1.15275,-3.52811 1.22261,-5.37949 l -1.50206,0.0349 c -0.17466,0 -0.34932,-0.0699 -0.48905,-0.20959 -0.13973,-0.13973 -0.20959,-0.31439 -0.20959,-0.48905 0,-1.991111 -0.45411,-3.91236 -1.32741,-5.728814 -0.17466,-0.349318 -0.0349,-0.7685 0.31439,-0.943159 l 1.36234,-0.663704 c -0.8733,-1.606863 -2.06098,-3.073998 -3.42332,-4.26168 l -0.94316,1.187682 c -0.24452,0.314386 -0.6637,0.349318 -0.97809,0.104795 -1.57193,-1.222613 -3.35345,-2.095908 -5.2747,-2.51509 -0.38425,-0.06986 -0.59384,-0.454113 -0.52398,-0.838363 l 0.31439,-1.467136 c -1.78152,-0.3493178 -3.70277,-0.3493178 -5.484292,0 l 0.349318,1.467136 c 0.03493,0.174659 0,0.38425 -0.104796,0.523977 -0.104794,0.139727 -0.244522,0.279454 -0.41918,0.314386 -1.921249,0.419182 -3.737703,1.292477 -5.274703,2.550022 -0.314386,0.244522 -0.733568,0.209591 -0.978091,-0.104796 l -0.943158,-1.152749 c -1.362341,1.222613 -2.550022,2.689749 -3.423316,4.296612 l 1.36234,0.663704 c 0.349318,0.174659 0.489045,0.59384 0.314386,0.908227 -0.873295,1.816453 -1.292476,3.702771 -1.292476,5.69388 0,0.38425 -0.314387,0.73357 -0.698636,0.73357 l -1.4671365,-0.0699 c 0.06986,1.85138 0.4890455,3.6329 1.2226135,5.34456 l 1.36234,-0.6637 c 0.174659,-0.0699 0.349318,-0.1048 0.523977,-0.0349 0.174659,0.0699 0.314387,0.17466 0.38425,0.34932 0.873295,1.78152 2.13084,3.35345 3.667839,4.57606 0.139728,0.1048 0.244523,0.27946 0.244523,0.45411 0,0.17466 -0.03493,0.34932 -0.139727,0.52398 z"
   id="path69"
   style="fill:#ffffff;stroke-width:0.349318"
   sodipodi:nodetypes="cccscccccssscccsccccccscccccccccccccccscccccccccccccccccccccscccccccccccscccccccccccscccccccsccccsccscc" /></svg>
